<svg xmlns="http://www.w3.org/2000/svg" xmlns:xlink="http://www.w3.org/1999/xlink" version="1.1" id="_x33_" x="0px" y="0px" viewBox="0 0 512 512" style="enable-background:new 0 0 512 512;" xml:space="preserve">
<g>
	<path style="fill:#E53F26;" d="M79.773,423.387c0,0,17.657,24.118,12.059,48.235c-5.599,24.118,115.222-3.856,86.134-36.606   C148.877,402.266,79.773,423.387,79.773,423.387z"/>
	<g>
		<path style="fill:#E28723;" d="M404.068,202.311c2.201-1.321,14.93-9.187,21.247-5.742c6.316,3.445-1.723,24.118,1.148,25.84    c2.871,1.723,14.93-4.594,11.485,5.168c-3.446,9.761-20.672,26.989-20.672,26.989s4.019,4.594-5.168,12.058    c-9.188,7.466-24.118,17.228-25.841,14.357C384.544,278.108,392.583,209.201,404.068,202.311z"/>
		<path style="fill:#FFFFFF;" d="M59.532,400.131c0,0-7.752,24.118-1.722,29.286c6.029,5.168,10.336,0,10.336,0s0,6.029,6.029,7.752    c6.03,1.723,22.395-0.861,22.395-0.861s-0.861,8.613,2.584,8.613c3.446,0,34.74,1.857,37.038-3.445    C147.388,415.636,59.532,400.131,59.532,400.131z"/>
		<path style="fill:#FFFFFF;" d="M73.313,462.148c0,0-0.861-16.365,8.614-14.642c9.474,1.723,12.92,3.445,12.92,3.445    s16.366-0.862,18.95,1.723c5.168-1.723,21.534-3.445,22.395,2.585C137.053,461.286,95.708,469.039,73.313,462.148z"/>
		<path style="fill:#FFDF65;" d="M114.658,426.258c-12.095,0.672-40.196,12.06-52.255-10.91    c-22.395-18.375-35.027-71.205-14.93-87.283c20.098-16.078,51.106-0.574,56.274,3.445c13.208,0,29.86,8.04,29.86,8.04    s57.997-41.345,124.607-25.267c-22.395-34.454-30.434-44.789-25.84-45.363c4.594-0.575,20.098-1.149,21.821-1.149    c-3.446-1.723-5.743-10.91,2.87-9.762c8.614,1.148-9.187-13.782-5.741-14.356c3.445-0.574-17.802-23.542-6.317-24.69    c11.485-1.15,21.246,2.87,21.246,2.87s-8.039-9.762-6.316-12.058c-0.574-2.297-16.652-13.208-13.781-17.801    c-7.465-6.316-9.762-16.078,2.87-12.633c12.633,3.446,12.633-1.148,12.633-1.148s-10.911-12.634-7.465-16.079    c3.445-3.445,12.633-1.148,12.633-1.148l-4.019-8.04c0,0-52.254-26.989-112.548,15.504c-6.891-22.394,5.167-32.731,12.633-39.047    c-18.95-0.574-8.613-15.504,14.356-24.117c-14.929-1.723-13.78-4.02-9.762-7.465c4.019-3.445,20.097-14.929,57.422-9.762    c-41.344-8.039-37.898-7.465-35.602-10.337c2.298-2.87,20.672-10.911,39.048-5.743c-12.059-7.463-5.742-8.612-4.019-9.187    s29.286-6.316,54.551,6.891c-4.02-8.614-1.723-32.732,14.355-42.494c9.762-4.02,5.742,5.743,5.742,5.743    s7.465-13.207,18.375-15.504c4.594,1.148,2.872,6.891,2.872,6.891s21.821-20.099,32.731-24.118    c10.336-2.297-2.296,17.801,1.723,16.078c4.019-1.722,9.762-13.781,40.77-10.336c10.911,2.871-10.911,10.91-17.801,21.246    c22.395-9.188,48.236-4.594,49.384,9.762c-8.04,6.89-60.295-2.296-85.56,66.611c5.742,22.968,75.223,112.549,55.7,192.94    c-19.523,80.391-85.56,172.842-144.13,194.663c-50.532,18.949-86.134,15.504-86.134,15.504s-82.688-8.04-92.451-19.524    c-14.93-5.743-8.613-18.375-8.613-18.375s-5.744-13.208,4.019-13.782c9.762-0.574,12.059,6.317,21.247,5.168    c9.188-1.149,20.098-7.464,34.454-1.723c14.93-7.465,24.692-6.891,33.306-3.445c8.613,3.445,18.948-11.485,4.019-10.91    c-14.93,0.574-29.86,4.594-36.176-6.316C120.401,426.832,124.994,425.684,114.658,426.258z"/>
		<path style="fill:#F4982A;" d="M153.705,382.618c-2.872,6.316,4.02,14.355,13.208,12.058c9.188-2.297,22.396-17.228,36.75-17.802    c14.355-0.573,39.621,25.267,53.977,10.337c-0.574,10.911-21.246,9.762-24.691,9.762c-1.149,15.217-11.486,21.247-36.751,22.396    c-29.345,1.333-31.009-11.486-32.731-18.376c-12.059-4.02-18.375-14.93-18.375-19.523    C145.092,376.875,153.705,382.618,153.705,382.618z"/>
		<path style="fill:#FFFFFF;" d="M192.753,383.767c7.24-2.507,13.207-1.723,21.82,1.722c8.613,3.446,15.504,10.336,12.059,17.227    c-3.446,6.891-36.75,17.802-48.809,8.04C165.765,400.993,177.823,388.935,192.753,383.767z"/>
		<path style="fill:#F4982A;" d="M207.683,440.615c4.594,1.723,2.872,10.91,2.872,10.91s10.336-0.574,5.168,1.148    c-5.168,1.723-6.891,5.744-3.445,6.317c3.445,0.573-1.149,4.019-2.872,5.741c-1.723,1.723,10.336,4.594,5.168,4.594    c-5.168,0-7.465-2.872-12.059-1.149c-4.594,1.723-12.632,2.297-13.208,6.891c-0.574,4.595,6.317,10.91,0.575,8.614    c-5.743-2.296-11.485-10.336-14.356-8.614c-2.871,1.723,0,8.615-6.891,8.04c-6.891-0.574-11.484-4.594-14.93-2.872    c-3.445,1.722-1.723,7.464-1.723,10.336c0,2.872-0.575-8.038-6.317-8.038c-5.741,0-11.485,4.594-18.949,5.742    c-7.465,1.148-8.038-0.576-14.355,0.574s-6.317,2.872-14.356,2.297c-8.039-0.575-8.614-5.169-12.059-4.02    c-3.445,1.149-17.801-0.575-17.801-8.613c7.465,2.872,13.207,8.614,17.801,4.594c4.594-4.02,2.871-4.594,6.891-1.15    c4.019,3.446,21.82,4.595,25.84,1.15c4.019-3.445,3.446-2.298,7.465-1.15c4.02,1.15,18.376-3.444,25.266-5.168    c6.891-1.723,10.911,1.724,14.356,0c3.445-1.723,8.038-8.612,10.91-7.464c2.871,1.149,8.614-1.148,14.93-1.723    C197.921,467.029,211.128,453.822,207.683,440.615z"/>
		<path style="fill:#F4982A;" d="M261.947,373.43c6.256-8.34,18.088-21.964,15.073-23.256c-3.015-1.292-26.702,12.49-30.578,13.352    c-3.876,0.861,6.891-10.336,5.599-15.074c-1.292-4.737-8.183-3.876-15.504,3.445c-7.321,7.322-11.628,10.337-9.474,5.599    c2.154-4.737,4.738-15.073,1.722-16.795c-3.015-1.724-15.073,15.504-16.366,14.212c-1.292-1.292-0.861-7.753,0-12.059    c0.861-4.307,0.431-10.336-3.876-8.614c-4.307,1.723-12.489,21.965-11.628,16.366c0.861-5.599-0.861-10.336-2.154-11.198    c-1.292-0.861-1.292-4.306,0.431-3.014c1.723,1.292,3.014,9.044,3.876,6.89c0.861-2.153,6.891-11.196,10.767-11.627    c3.876-0.431,8.614,0.431,6.891,12.058c-0.431,4.737,1.292,2.584,1.292,2.584s8.183-8.614,12.059-8.614    c3.876,0,5.168,6.461,3.445,12.489c10.767-6.891,18.088-9.043,21.103-5.598c3.015,3.446,1.292,11.197,1.292,11.197    s19.81-8.613,22.395-9.044c2.584-0.43,5.598,4.738,4.737,8.614c-0.861,3.875-12.92,18.518-17.226,21.102    C261.516,379.028,259.363,376.875,261.947,373.43z"/>
		<path style="fill:#F4982A;" d="M397.177,296.484c19.523-80.392-49.958-169.972-55.7-192.94    c25.265-68.907,77.521-59.72,85.56-66.611c-0.378-4.724-3.44-8.382-8.163-10.849c-15.052,1.79-31.125,6.066-45.815,15.73    c-32.731,21.534-38.76,37.899-37.898,59.433c0,0,11.197,35.315,8.613,43.067c-2.584,7.753,5.168,43.066,13.782,54.264    c8.613,11.198-12.92,233.423-94.747,272.184c-79.401,37.611-123.12,30.616-187.026,17.576    c14.224,10.835,91.13,18.313,91.13,18.313s35.602,3.445,86.134-15.504C311.617,469.326,377.654,376.875,397.177,296.484z"/>
		<path style="fill:#FFDF65;" d="M73.601,486.266c0.287,2.584,4.881,20.387,11.771,19.237c6.891-1.148,12.634-15.504,12.634-15.504    s12.632,23.543,16.939,19.523c4.307-4.019,3.158-16.652,3.158-16.652s18.375,20.097,20.098,15.791    c1.723-4.307,0.288-12.059,0.288-12.059s14.641,20.96,19.235,12.346c4.594-8.613,0.574-14.355,0.574-14.355    s11.484,12.06,16.652,7.465c5.169-4.594-7.464-13.781-7.464-13.781l-36.751,2.296L73.601,486.266z"/>
		<path style="fill:#FFDF65;" d="M280.465,440.615c5.168,23.256,34.885,24.117,46.944,8.613    c12.92-3.015,95.608-88.718,100.346-93.456c4.738-4.737,7.752-10.767,2.154-9.905c4.737-3.015,49.958-64.601,38.33-68.477    c-13.351-4.307-40.052,23.256-43.498,26.271c-3.445,3.015,4.738-19.811,1.292-21.964c-13.351,0-28.424,27.562-29.716,27.993    c-1.292,0.431,2.153-21.534-4.307-19.38c-6.46,2.154-27.994,31.008-29.285,32.3c-1.292,1.292,2.584-23.687-4.738-21.965    c-7.321,1.723-18.518,29.286-24.117,35.746c-5.598,6.46-8.613-21.103-10.336-21.534c-1.723-0.431-5.599,1.723-11.198,12.92    c-5.598,11.197-5.598,19.38-6.46,16.796c-0.861-2.584-6.46-12.92-9.044-12.059c-16.366,15.074-0.861,56.848,3.875,73.214    C300.707,405.73,277.882,413.052,280.465,440.615z"/>
		<path style="fill:#FFDF65;" d="M362.724,212.646c0,0-0.001-12.058,2.871-16.652c-13.207-12.634-20.097-53.403-14.355-64.887    c5.741-11.486,8.613,5.741,14.355,5.741c2.297-15.504,7.465-22.394,11.485-21.82c4.019,0.574,3.445,12.633,6.316,11.484    c2.87-1.148,10.911-20.672,19.524-21.82c8.613-1.148,3.445,17.226,5.168,16.652c1.723-0.573,10.91-20.672,16.652-20.672    c5.743,0,4.02,14.929,6.891,13.207c2.87-1.723,7.465-17.802,15.504-21.821c8.039-4.019,6.891,18.376,6.891,18.376    s9.762-17.801,18.375-17.801c8.613,0-7.465,79.242-67.185,127.478c-5.168,3.445-16.079,9.187-20.672,8.614    C379.951,228.15,362.724,212.646,362.724,212.646z"/>
		<path style="fill:#F4982A;" d="M73.313,462.148c6.549,3.275,17.227,9.044,23.256,4.738c6.03-4.307,20.242-5.599,26.701-1.723    c6.46,3.876,10.336-4.737,17.227-3.876c6.89,0.861,23.256,7.753,30.578-0.431c7.322-8.182,12.058-21.103-1.723-21.103    c-13.782,0-30.578,4.307-37.038-3.876c-6.46-8.182-4.737-15.504-13.351-15.073c-8.613,0.43-29.716,6.029-39.191,2.583    c-9.474-3.445-15.504-11.627-11.628-8.182c3.876,3.445,11.628,9.044,27.563,6.029c15.935-3.015,30.147-5.168,32.3-0.861    c2.154,4.307,3.876,15.504,13.782,15.935c9.905,0.431,32.3-3.445,36.176-1.292c3.876,2.153,9.905,12.92,1.723,23.256    c-8.183,10.336-16.796,13.781-39.621,6.891c-7.753,4.306-5.599,7.321-12.489,5.599c-6.891-1.723-12.92-6.03-18.088-4.738    s-11.198,6.46-17.657,5.598c-6.46-0.861-19.381-0.43-23.687-4.306C63.839,463.44,63.839,457.41,73.313,462.148z"/>
		<circle style="fill:#891E4E;" cx="186.006" cy="401.566" r="9.125"/>
		<path style="fill:#FFFFFF;" d="M160.309,372.569c-1.723,7.752,1.722,13.781,12.058,6.89c10.337-6.89,27.563-18.95,63.74,3.445    c11.197-1.723-28.424-23.256-49.958-14.643C164.615,376.875,160.309,372.569,160.309,372.569z"/>
		<path style="fill:#F4982A;" d="M276.589,130.532c0.076-0.293-6.575-2.411-17.716-4.087c-11.104-1.662-26.851-2.605-43.916,0.105    c-17.077,2.626-31.801,8.49-41.624,13.999c-9.89,5.484-15.001,10.399-14.747,10.656c0.22,0.276,5.648-4.053,15.602-9.04    c9.894-5.014,24.406-10.483,41.17-13.062c16.753-2.661,32.234-2.028,43.286-0.845    C269.721,129.454,276.502,130.935,276.589,130.532z"/>
		<path style="fill:#F4982A;" d="M280.897,125.364c0.163-0.246-5.295-4.061-15.276-7.878c-9.936-3.838-24.503-7.178-40.787-7.554    c-16.277-0.439-30.965,1.843-41.212,4.747c-5.133,1.445-9.167,3.063-11.811,4.483c-2.661,1.409-3.865,2.63-3.748,2.757    c0.115,0.145,1.464-0.755,4.176-1.847c2.702-1.103,6.737-2.428,11.842-3.624c10.193-2.406,24.679-4.366,40.685-3.934    c16.016,0.373,30.318,3.358,40.247,6.695C274.97,122.518,280.7,125.733,280.897,125.364z"/>
		<path style="fill:#F4982A;" d="M285.203,115.028c0.168-0.24-4.776-4.147-13.768-8.884c-8.95-4.729-22.213-9.987-37.63-12.253    c-15.409-2.335-29.614-1.201-39.571,0.583c-9.992,1.814-15.914,3.902-15.837,4.189c0.096,0.405,6.18-1.053,16.113-2.383    c9.912-1.303,23.831-2.119,38.913,0.167c15.092,2.219,28.158,7.086,37.202,11.337C279.698,112.036,284.98,115.383,285.203,115.028    z"/>
		<path style="fill:#F4982A;" d="M296.4,108.137c0.216-0.188-3.258-4.659-10.38-10.336c-7.078-5.674-18.1-12.177-31.401-16.27    c-13.274-4.165-25.894-5.367-34.928-5.481c-9.066-0.096-14.62,0.76-14.592,1.079c0.022,0.392,5.591,0.186,14.521,0.749    c8.91,0.576,21.249,2.047,34.227,6.121c13.005,4.003,23.848,10.07,31.076,15.264C292.181,104.453,296.1,108.44,296.4,108.137z"/>
		<path style="fill:#F4982A;" d="M303.292,104.692c0.252-0.203-2.12-3.796-6.763-8.977c-4.646-5.147-11.671-11.866-20.691-17.596    c-8.989-5.776-18.191-9.214-25.036-10.628c-6.862-1.468-11.277-1.064-11.25-0.698c-0.004,0.348,4.248,0.596,10.809,2.474    c6.554,1.826,15.334,5.409,24.088,11.031c8.783,5.58,15.844,11.927,20.764,16.687    C300.125,101.769,302.991,104.941,303.292,104.692z"/>
		<path style="fill:#F4982A;" d="M294.678,33.201c-0.253-0.148-2.438,2.893-4.202,8.626c-1.802,5.687-2.638,14.173-0.904,23.148    c1.672,8.986,5.124,16.555,8.048,21.678c2.943,5.143,5.391,7.915,5.673,7.703c0.294-0.21-1.581-3.298-4.052-8.546    c-2.455-5.234-5.525-12.682-7.127-21.306c-1.658-8.617-1.148-16.631,0.132-22.217C293.487,36.675,295.055,33.381,294.678,33.201z"/>
		<path style="fill:#F4982A;" d="M311.905,24.588c-0.206-0.213-3.13,2.212-6.138,7.473c-1.486,2.623-2.911,5.954-3.954,9.808    c-1.041,3.852-1.696,8.21-1.846,12.791c-0.297,9.181,1.306,17.381,2.972,23.087c1.677,5.733,3.483,9.003,3.799,8.857    c0.337-0.143-0.836-3.581-2.026-9.301c-1.184-5.703-2.451-13.716-2.162-22.556c0.24-8.844,2.356-16.646,4.844-21.85    C309.85,27.665,312.222,24.851,311.905,24.588z"/>
		<path style="fill:#F4982A;" d="M344.635,10.806c-0.207-0.23-3.706,2.374-8.386,7.626c-4.667,5.225-10.337,13.311-14.401,23.296    c-4.111,9.964-5.816,19.668-6.251,26.662c-0.458,7.021,0.262,11.363,0.614,11.323c0.359-0.025,0.296-4.313,1.205-11.144    c0.888-6.813,2.829-16.18,6.823-25.86c3.949-9.702,9.198-17.69,13.418-23.113C341.882,14.159,344.914,11.098,344.635,10.806z"/>
		<path style="fill:#F4982A;" d="M381.673,14.252c-0.08-0.288-5.167,0.716-12.754,4.218c-3.774,1.767-8.138,4.215-12.579,7.528    c-4.444,3.298-8.943,7.481-12.985,12.44c-8.14,9.94-12.653,20.851-14.85,28.848c-2.22,8.049-2.306,13.272-1.959,13.29    c0.363,0.042,1.089-5.009,3.705-12.753c2.597-7.704,7.238-18.15,15.105-27.75c7.805-9.658,17.21-16.155,24.384-19.97    C376.944,16.265,381.808,14.644,381.673,14.252z"/>
		<path style="fill:#F4982A;" d="M401.483,28.033c-0.034-0.291-5.723-0.015-14.557,2.484c-8.767,2.482-20.719,7.75-31.208,17.226    c-10.545,9.402-17.19,20.591-20.77,28.977c-3.621,8.441-4.437,14.135-4.094,14.191c0.355,0.089,1.784-5.349,5.753-13.425    c3.935-8.033,10.629-18.719,20.835-27.818c10.152-9.17,21.569-14.525,30.038-17.409C395.993,29.367,401.558,28.445,401.483,28.033    z"/>
		
			<ellipse transform="matrix(0.8352 0.55 -0.55 0.8352 200.7342 -96.0737)" style="fill:#F4982A;" cx="260.655" cy="286.865" rx="21.142" ry="1.722"/>
		
			<ellipse transform="matrix(0.87 0.493 -0.493 0.87 168.3206 -99.1905)" style="fill:#F4982A;" cx="272.283" cy="269.638" rx="14.85" ry="1.723"/>
		
			<ellipse transform="matrix(0.7977 0.6031 -0.6031 0.7977 197.8853 -114.2878)" style="fill:#F4982A;" cx="269.268" cy="237.769" rx="22.136" ry="1.723"/>
		
			<ellipse transform="matrix(0.8445 0.5355 -0.5355 0.8445 147.8857 -113.9216)" style="fill:#F4982A;" cx="270.13" cy="197.716" rx="20.908" ry="1.723"/>
		
			<ellipse transform="matrix(0.8455 0.534 -0.534 0.8455 133.5224 -117.6922)" style="fill:#F4982A;" cx="270.13" cy="171.877" rx="9.678" ry="1.723"/>
		
			<ellipse transform="matrix(0.8196 0.573 -0.573 0.8196 222.451 -96.8076)" style="fill:#F4982A;" cx="264.936" cy="304.802" rx="10.84" ry="0.862"/>
		
			<ellipse transform="matrix(0.8569 0.5155 -0.5155 0.8569 185.3602 -101.9795)" style="fill:#F4982A;" cx="276.367" cy="282.884" rx="7.587" ry="0.861"/>
		
			<ellipse transform="matrix(0.9089 0.4171 -0.4171 0.9089 134.1698 -91.5424)" style="fill:#F4982A;" cx="276.574" cy="261.268" rx="11.393" ry="0.861"/>
		
			<ellipse transform="matrix(0.8296 0.5584 -0.5584 0.8296 169.3456 -117.2559)" style="fill:#F4982A;" cx="276.761" cy="218.793" rx="10.712" ry="0.861"/>
		
			<ellipse transform="matrix(0.8306 0.5568 -0.5568 0.8306 153.394 -121.0046)" style="fill:#F4982A;" cx="275.613" cy="191.658" rx="4.957" ry="0.861"/>
		<path style="fill:#F4982A;" d="M358.703,137.424c-0.359-0.031-0.983,3.369-0.781,8.894c0.177,5.517,1.236,13.083,3.211,21.224    c3.956,16.299,9.517,28.735,10.203,28.453c0.731-0.275-3.625-13.029-7.523-29.098c-1.948-8.032-3.284-15.38-3.948-20.735    C359.176,140.808,359.103,137.447,358.703,137.424z"/>
		<path style="fill:#F4982A;" d="M396.603,231.595c0.361,0.003,0.782-2.087,0.724-5.523c-0.072-3.412-0.666-8.251-2.841-13.167    c-2.143-4.935-5.641-8.644-8.621-10.503c-2.983-1.913-5.253-2.182-5.34-1.814c-0.116,0.364,1.74,1.245,4.173,3.374    c2.438,2.096,5.302,5.552,7.27,10.063c1.993,4.497,2.863,8.976,3.418,12.228C395.929,229.518,396.203,231.597,396.603,231.595z"/>
		<path style="fill:#F4982A;" d="M402.345,206.33c0.148,0.278,6.362-2.836,14.803-10.117c8.456-7.22,18.706-18.91,27.485-33.42    c8.835-14.478,14.799-28.671,18.472-39.1c3.672-10.451,5.068-17.185,4.702-17.277c-0.37-0.101-2.417,6.397-6.525,16.589    c-4.11,10.174-10.289,24.08-19.001,38.352c-8.658,14.306-18.459,25.942-26.442,33.412    C407.883,202.287,402.099,205.96,402.345,206.33z"/>
		<path style="fill:#F4982A;" d="M397.752,197.142c0.176,0.277,5.359-2.796,12.088-9.71c6.748-6.861,14.626-17.749,21.115-30.883    c6.538-13.116,10.73-25.725,13.238-34.943c2.501-9.236,3.314-15.121,2.943-15.191c-0.375-0.077-1.853,5.615-4.811,14.631    c-2.961,9.003-7.397,21.358-13.835,34.271c-6.395,12.935-13.835,23.734-20.083,30.795    C402.187,193.213,397.487,196.801,397.752,197.142z"/>
		<path style="fill:#F4982A;" d="M390.861,193.698c0.238,0.294,4.193-2.957,8.49-9.779c4.358-6.755,9.101-16.792,13.297-28.208    c8.367-22.872,12.218-42.252,11.517-42.405c-0.779-0.2-5.811,18.791-14.102,41.45c-4.16,11.316-8.548,21.309-12.386,28.163    C393.908,189.827,390.59,193.421,390.861,193.698z"/>
		
			<ellipse transform="matrix(-0.2537 0.9673 -0.9673 -0.2537 637.9468 -186.3473)" style="fill:#F4982A;" cx="390.861" cy="152.927" rx="36.213" ry="1.378"/>
		<path style="fill:#F4982A;" d="M377.079,179.915c0.384-0.066,0.213-2.898,0.006-7.45c-0.217-4.551-0.433-10.835-0.507-17.793    c-0.154-13.914,0.117-25.23-0.648-25.288c-0.755-0.065-2.263,11.257-2.108,25.32c0.074,7.026,0.603,13.392,1.324,17.958    C375.856,177.231,376.714,179.981,377.079,179.915z"/>
		<path style="fill:#F4982A;" d="M330.854,449.228c0.492,0.226,2.276-2.177,4.207-6.607c0.947-2.216,1.926-4.947,2.606-8.124    c0.671-3.168,1.073-6.804,0.646-10.653c-0.402-3.841-1.705-7.468-3.573-10.306c-1.858-2.859-4.19-4.909-6.307-6.246    c-4.299-2.669-7.523-2.807-7.629-2.279c-0.174,0.567,2.527,1.699,5.883,4.624c1.655,1.461,3.418,3.403,4.798,5.881    c1.389,2.469,2.368,5.472,2.718,8.783c0.698,6.657-0.813,12.923-1.91,17.376C331.14,446.154,330.309,448.983,330.854,449.228z"/>
		<path style="fill:#F4982A;" d="M341.477,442.912c0.494,0.216,2.184-2.103,3.895-6.401c1.661-4.261,3.346-10.717,2.458-18.002    c-0.435-3.616-1.518-6.991-2.962-9.805c-1.439-2.823-3.211-5.084-4.893-6.744c-3.396-3.333-6.275-4.329-6.537-3.837    c-0.303,0.494,1.803,2.27,4.323,5.746c2.525,3.437,5.232,8.737,5.966,15.149c0.79,6.4-0.264,12.371-1.156,16.651    C341.65,439.962,340.924,442.677,341.477,442.912z"/>
		
			<ellipse transform="matrix(0.6452 -0.764 0.764 0.6452 -130.2988 435.2808)" style="fill:#F4982A;" cx="403.494" cy="357.926" rx="67.642" ry="2.067"/>
		<path style="fill:#F4982A;" d="M417.275,302.8c-0.292-0.066-0.849,1.363-2.044,3.828c-1.184,2.471-3.029,5.983-5.548,10.207    c-5.011,8.466-12.674,19.767-21.482,32.029c-17.659,24.507-32.704,43.916-31.793,44.664c0.848,0.71,17.373-17.583,35.152-42.253    c8.866-12.342,16.24-24.039,20.693-33.041c2.237-4.491,3.732-8.308,4.486-11.04C417.504,304.46,417.542,302.856,417.275,302.8z"/>
		<path style="fill:#F4982A;" d="M388.564,307.394c-0.516-0.222-3.111,4.341-7.335,11.714c-4.203,7.384-9.958,17.617-16.22,28.98    c-12.531,22.724-22.233,41.422-21.236,41.995c0.984,0.566,12.301-17.231,24.857-40c6.275-11.386,11.64-21.874,15.2-29.641    C387.412,312.685,389.097,307.622,388.564,307.394z"/>
		<path style="fill:#F4982A;" d="M335.735,390.082c0.559-0.018,1.045-3.919,2.599-10.135c1.495-6.224,3.874-14.777,6.644-24.209    c5.561-18.858,10.226-34.169,9.133-34.563c-1.053-0.387-7.487,14.366-13.1,33.401c-2.795,9.517-4.764,18.33-5.555,24.85    C334.606,385.947,335.149,390.114,335.735,390.082z"/>
		<path style="fill:#F4982A;" d="M323.102,391.232c0.542-0.152,0.286-3.249,0.169-8.306l-0.454-19.808    c-0.32-15.507-0.857-28.13-2.011-28.161c-1.129-0.032-2.445,12.603-2.122,28.253c0.167,7.822,0.769,14.916,1.679,20.018    C321.237,388.34,322.544,391.394,323.102,391.232z"/>
		<path style="fill:#F4982A;" d="M311.617,399.27c0.491-0.292-0.463-3.005-1.377-7.602c-0.964-4.582-2.022-11.003-3.058-18.151    c-2.054-14.3-3.594-25.998-4.752-25.927c-1.121,0.06-1.426,11.978,0.661,26.525c1.053,7.264,2.602,13.798,4.342,18.375    C309.128,397.096,311.131,399.578,311.617,399.27z"/>
		<path style="fill:#F4982A;" d="M327.122,315.433c4.594,1.148,9.187,5.169,7.464,14.93c-1.148,4.02-0.717,6.029-0.717,6.029    S331.716,317.73,327.122,315.433z"/>
		<path style="fill:#F4982A;" d="M300.133,332.661c0,0,4.594,5.167,4.594,9.187c1.723-1.723,2.871-6.316,2.871-6.316    S303.059,332.13,300.133,332.661z"/>
		<path style="fill:#FFFEC5;" d="M300.133,332.661c-0.133-0.303-1.205-0.279-2.927,0.53c-1.701,0.794-4.012,2.573-5.825,5.497    c-1.841,2.899-3.139,6.776-3.759,11.078c-0.627,4.307-0.649,9.048-0.196,13.924c0.932,9.76,3.339,18.236,5.501,24.183    c2.176,5.953,4.245,9.377,4.91,9.1c0.655-0.27-0.159-4.032-1.395-10.103c-1.224-6.058-2.992-14.418-3.87-23.655    c-0.893-9.209-0.348-17.597,2.027-22.793C296.87,335.152,300.515,333.383,300.133,332.661z"/>
		<path style="fill:#FFFEC5;" d="M323.533,314.859c-0.278-0.615-2.529-0.412-5.556,1.427c-3.019,1.8-6.523,5.406-8.954,10.076    c-2.463,4.659-3.572,9.272-3.92,12.622c-0.346,3.365,0.065,5.511,0.773,5.591c1.443,0.202,3.381-7.527,7.712-15.79    c2.162-4.125,4.644-7.421,6.697-9.663C322.318,316.866,323.857,315.529,323.533,314.859z"/>
		<path style="fill:#FFFEC5;" d="M357.986,300.647c-0.075-0.335-0.797-0.554-2.051-0.355c-1.24,0.2-2.962,0.872-4.761,2.105    c-3.639,2.444-7.483,6.971-10.662,12.41c-6.372,10.876-8.357,21.232-6.644,21.586c0.628,0.052,1.759-1.993,3.686-5.503    c1.894-3.477,4.402-8.327,7.413-13.462c3.005-5.14,6.034-9.508,8.571-12.243C356.025,302.394,358.12,301.366,357.986,300.647z"/>
		<path style="fill:#FFFEC5;" d="M393.732,292.465c0.016-0.343-0.616-0.746-1.872-0.936c-1.246-0.188-3.128-0.099-5.271,0.589    c-4.345,1.317-9.344,5.049-13.508,9.978c-4.201,4.932-7.052,9.992-8.762,13.793c-1.7,3.814-2.235,6.411-1.594,6.722    c0.644,0.314,2.305-1.644,4.744-4.868c2.446-3.214,5.652-7.729,9.539-12.286c3.874-4.572,7.818-8.127,11.039-9.987    C391.23,293.544,393.688,293.223,393.732,292.465z"/>
		<path style="fill:#FFFEC5;" d="M426.032,281.698c-0.052-0.675-2.732-1.116-6.617,0.326c-3.869,1.389-8.518,4.661-12.592,9.056    c-8.163,8.857-11.728,17.967-10.508,18.611c1.267,0.736,6.697-6.878,14.281-15.08c3.798-4.088,7.526-7.346,10.469-9.325    C423.981,283.27,426.13,282.436,426.032,281.698z"/>
		<path style="fill:#FFFEC5;" d="M466.084,277.534c0.018-0.344-0.686-0.75-2.053-0.934c-1.362-0.193-3.358-0.089-5.695,0.468    c-4.696,1.094-10.568,4.071-16.261,8.208c-11.394,8.34-18.343,17.438-17.335,18.386c1.043,1.031,9.486-6.25,20.363-14.197    c5.443-3.955,10.549-7.139,14.423-8.94C463.374,278.665,466.025,278.266,466.084,277.534z"/>
		<path style="fill:#E28723;" d="M472.023,279.858c-0.391-1.233-1.246-2.1-2.105-2.481c-0.875-0.393-1.653-0.412-2.206-0.38    c-1.134,0.095-1.643,0.383-1.628,0.537c0.013,0.186,0.587,0.244,1.547,0.471c0.48,0.125,1.029,0.301,1.509,0.662    c0.488,0.362,0.875,0.967,0.974,1.708c0.261,1.602-0.343,3.96-1.383,6.537c-1.048,2.599-2.55,5.519-4.393,8.698    c-3.696,6.36-8.746,13.791-14.878,21.979c-6.159,8.138-13.332,17.253-21.807,26.13l0.644-0.675l-0.116,5.381l-0.027,0.013    c-0.012-0.006,0.037,0.134,0.007,0.431c-0.042,0.586-0.321,1.529-0.744,2.465c-0.853,1.91-2.137,3.923-3.537,5.888    c-2.833,3.949-6.191,7.839-9.727,11.706c-7.111,7.729-15.035,15.409-23.333,23.116c-14.985,13.848-29.8,26.536-43.562,37.626    c-3.445,2.764-6.831,5.422-10.158,7.915l-1.244,0.925l-0.785,0.573c-0.212,0.126-0.353,0.337-0.528,0.51l-0.293,0.319    c-0.679,0.742-1.366,1.465-2.056,2.173c-1.381,1.414-2.784,2.754-4.206,4.015c-5.671,5.036-11.762,8.757-17.777,10.331    c-6.006,1.631-11.776,0.891-16.253-1.189c-4.512-2.06-7.765-5.165-9.946-7.974c-2.195-2.838-3.347-5.436-3.93-7.233    c-0.585-1.807-0.655-2.846-0.91-2.866c-0.216-0.03-0.633,1.045-0.453,3.138c0.182,2.07,1.015,5.101,3.078,8.479    c2.058,3.344,5.365,7.142,10.439,9.905c2.525,1.366,5.489,2.427,8.755,2.897c3.262,0.478,6.8,0.351,10.343-0.413    c7.126-1.522,14.079-5.494,20.371-10.733c1.579-1.314,3.127-2.709,4.643-4.176c0.758-0.733,1.51-1.483,2.251-2.252l0.24-0.248    l0.036-0.026c-0.061,0.047,0.313-0.213,0.488-0.337l1.306-0.918c3.477-2.474,6.969-5.092,10.512-7.821    c14.141-10.947,29.168-23.56,44.322-37.565c8.397-7.799,16.383-15.616,23.624-23.654c3.61-4.035,7.044-8.104,10.085-12.484    c1.509-2.209,2.937-4.466,4.068-7.114c0.546-1.34,1.061-2.774,1.176-4.637c0.048-0.924-0.042-2.024-0.513-3.158l-0.011-0.022    c7.829-8.804,14.198-17.466,19.729-25.419c5.89-8.574,10.626-16.408,13.969-23.246c1.665-3.423,2.981-6.597,3.83-9.516    C472.277,284.941,472.762,282.229,472.023,279.858z"/>
		<path style="fill:#F4982A;" d="M474.124,94.931c-0.378-0.016-0.763,3.027-1.652,8.449c-0.896,5.416-2.373,13.223-5.295,22.543    c-2.902,9.316-7.322,20.114-13.627,31.367c-6.285,11.26-14.445,22.95-24.183,34.247c-5.912,6.863-12.045,13.197-18.179,18.957    c-3.067,2.878-6.134,5.614-9.18,8.193c-1.524,1.289-3.041,2.54-4.551,3.747l-2.26,1.774l-1.124,0.858l-1.574,1.154l-0.549,1.087    l-0.482,1.113c-0.182,8.422-6.365,13.159-12.43,15.451c-6.172,2.245-12.252,2.985-16.632,1.708    c-4.477-1.228-6.798-4.491-7.87-6.772c-1.102-2.341-1.313-3.789-1.575-3.765c-0.221,0-0.507,1.534,0.253,4.268    c0.399,1.35,1.101,3.011,2.435,4.659c1.32,1.645,3.342,3.211,5.912,4.151c2.56,0.961,5.573,1.313,8.735,1.152    c3.173-0.177,6.495-0.747,9.994-1.878c3.464-1.153,7.141-2.981,10.193-6.072c1.515-1.537,2.837-3.384,3.805-5.469    c0.482-1.042,0.879-2.139,1.173-3.281c0.145-0.571,0.267-1.152,0.361-1.747l0.117-0.9l0.048-0.495l0.008-0.083l0.072-0.047    l0.146-0.094l0.595-0.424l1.185-0.861l2.365-1.774c1.576-1.205,3.156-2.455,4.737-3.746c3.163-2.58,6.336-5.327,9.504-8.232    c6.332-5.805,12.638-12.238,18.685-19.259c9.961-11.554,18.222-23.641,24.445-35.336c6.248-11.689,10.44-22.954,12.961-32.641    c2.544-9.693,3.492-17.77,3.784-23.333C474.755,98.024,474.459,94.943,474.124,94.931z"/>
		<path style="fill:#F4982A;" d="M270.847,142.592c0,0-11.485-12.634-46.512-7.466C224.335,135.125,251.323,133.403,270.847,142.592    z"/>
		<path style="fill:#FFFFFF;" d="M142.461,364.887c-7.428-3.715-3.714-16.096,4.953-13.62    C156.082,353.743,142.461,364.887,142.461,364.887z"/>
		<path style="fill:#FFFFFF;" d="M294.678,440.615c-6.747-2.811-5.168-16.366,1.723-12.92    C303.292,431.14,305.014,444.921,294.678,440.615z"/>
		<path style="fill:#F4982A;" d="M73.601,486.266c3.445,12.92,6.029,23.256,13.782,19.811c7.752-3.445,10.336-12.92,10.336-12.92    s10.337,19.811,17.227,16.366c6.891-3.445,4.307-12.92,4.307-12.92s17.227,17.227,18.95,12.059    c1.723-5.168,0.861-8.614,0.861-8.614s12.058,15.504,18.95,11.198c6.891-4.307,1.723-13.781,1.723-13.781    s10.623,10.336,25.84,5.168c0,0-23.256-6.03-29.286-9.475c0,0,4.594,15.217-0.861,15.217c-5.454,0-14.355-8.039-16.938-11.772    c-2.585-3.732,0.287,9.189-3.446,8.901c-3.733-0.288-15.504-11.198-16.94-12.633c-1.436-1.436,1.436,14.642-4.593,13.207    c-6.03-1.435-13.782-14.355-15.504-16.078c-1.723-1.723-4.594,13.495-12.346,12.92C77.908,502.343,73.601,486.266,73.601,486.266z    "/>
		<circle style="fill:#F4982A;" cx="88.818" cy="365.966" r="5.742"/>
		<path style="fill:#F4982A;" d="M58.959,325.77c-11.485,2.296-11.485,19.523-9.188,35.602    c-3.445,11.486-10.337-26.415-2.297-33.306C55.513,321.177,58.959,325.77,58.959,325.77z"/>
		<path style="fill:#F4982A;" d="M48.622,369.411c0,0,14.786,52.685,47.086,51.824C88.818,432.576,49.771,417.646,48.622,369.411z"/>
		<path style="fill:#F4982A;" d="M106.045,351.035c-9.188-8.039-16.653-21.821,6.891-17.227    C90.54,325.194,85.947,342.422,106.045,351.035z"/>
		<path style="fill:#F4982A;" d="M131.885,375.152c-0.861,12.059,30.147,40.484,22.395,37.038    c-7.753-3.444-33.593-18.95-26.701-19.81c6.89-0.862,11.197,4.306,11.197,4.306s-18.95-23.256-8.613-34.453    C131.023,364.816,131.885,375.152,131.885,375.152z"/>
		<path style="fill:#FFFFFF;" d="M139.637,345.005c8.613,1.723,33.592-29.285,93.025-26.702    c-4.307-6.029-37.899-9.474-82.689,15.504c-15.504,11.197-22.394,11.197-22.394,11.197H139.637z"/>
		<path style="fill:#FFFFFF;" d="M246.443,363.525c0,0,39.622-13.352,30.578-13.352S261.947,351.896,246.443,363.525z"/>
		<path style="fill:#FFFFFF;" d="M227.063,357.495c0,0,12.489-14.212,21.102-10.767C246.443,351.896,224.909,360.51,227.063,357.495    z"/>
		<path style="fill:#FFFFFF;" d="M163.754,425.972c12.921-2.585,30.147-4.307,37.037,5.168c6.891,9.475,7.753,17.226,2.585,15.504    C198.207,444.921,202.515,426.832,163.754,425.972z"/>
		<path style="fill:#FFFFFF;" d="M57.81,347.59c-0.861-2.585-4.307-23.256,16.365-21.534C71.591,331.224,57.81,347.59,57.81,347.59z    "/>
		<path style="fill:#FFFFFF;" d="M58.671,359.648c0.861,4.307,8.613,25.84,23.256,29.286    C81.066,393.241,53.503,388.935,58.671,359.648z"/>
		<path style="fill:#F4982A;" d="M75.898,370.846c0,0,23.256,19.811,30.147,1.723c2.584-8.614,6.891,12.92-9.475,12.92    C80.204,385.489,75.898,370.846,75.898,370.846z"/>
		<path style="fill:#F4982A;" d="M73.888,396.973c0,0,1.149,25.266,40.196,13.782C88.818,409.606,84.224,407.309,73.888,396.973z"/>
		<path style="fill:#F4982A;" d="M233.523,443.198c18.95-11.197,29.285-23.256,8.183-27.132c6.891-3.158,19.38,2.729,15.935,10.766    C254.195,434.871,251.612,435.304,233.523,443.198z"/>
		<path style="fill:#F4982A;" d="M217.444,463.582c0,0,30.432-18.376,8.039-19.525c0-8.039-0.001-5.742,8.039-3.444    C241.562,442.91,243.858,455.543,217.444,463.582z"/>
		<path style="fill:#F4982A;" d="M179.259,484.974c6.025,1.506,21.964,12.489,22.825,6.029c0.861-6.029,4.307-5.598,3.015,0.431    c-1.292,6.03-8.183,8.183-15.504,4.738C182.273,492.726,175.813,484.112,179.259,484.974z"/>
		<path style="fill:#F4982A;" d="M204.237,480.236c0,0,34.884,9.043,27.563-3.446c-2.154-4.306-1.723-4.737,1.723-1.723    c0.78,0.684,1.34,1.654,1.673,2.752c1.139,3.746-0.357,8.974-4.688,9.307c-5.599,0.43-21.534-1.722-27.563-5.169    C196.916,478.514,204.237,480.236,204.237,480.236z"/>
		<path style="fill:#F4982A;" d="M245.581,457.841c7.753,0.431,17.227,8.183,9.906,12.058c-7.322,3.876-21.964,5.168-21.964,5.168    c2.584-0.861-6.029-0.861-2.584-1.723c3.445-0.861,26.27-4.737,21.534-9.044c-4.738-4.306-9.475-6.46-11.198-6.891    C239.552,456.98,245.581,457.841,245.581,457.841z"/>
		<path style="fill:#F4982A;" d="M220.172,433.293c0,0,25.84-9.475,24.548-6.461C243.428,429.848,227.063,433.724,220.172,433.293z"/>
		<path style="fill:#F4982A;" d="M240.627,448.332c0,0,20.571-2.466,19.126-0.516C258.307,449.768,245.627,449.803,240.627,448.332z    "/>
		<path style="fill:#F4982A;" d="M205.926,427.059c0,0,15.063-7.919,14.424-5.653C219.711,423.674,210.075,427.126,205.926,427.059z    "/>
		<path style="fill:#F4982A;" d="M250.749,458.415c12.059,0,33.306-14.93,12.633-17.801c-4.02-2.871,1.723-2.297,6.891-1.723    c5.168,0.575,13.547,7.315,4.593,13.782c-10.336,7.465-19.523,10.336-19.523,10.336l-9.762-5.168L250.749,458.415z"/>
		<path style="fill:#F4982A;" d="M318.211,101.359c0.498-0.308,0.156-1.67-1.444-3.192c-0.804-0.732-1.987-1.521-3.573-1.8    c-1.577-0.313-3.432,0.105-4.889,0.966c-1.522,0.798-2.831,2.346-3.172,3.952c-0.367,1.592-0.073,2.919,0.22,3.908    c0.661,1.977,1.364,2.946,1.711,2.878c0.4-0.08,0.327-1.395,0.207-3.226c-0.037-0.906-0.032-1.956,0.304-2.856    c0.325-0.897,0.996-1.651,2.085-2.256c2.195-1.338,4.25-0.674,5.709,0.248C316.829,100.888,317.693,101.703,318.211,101.359z"/>
		<path style="fill:#F4982A;" d="M373.632,272.94c0.403,0.107,1.783-2.775,2.226-7.934c0.166-2.564,0.109-5.741-1.149-9.155    c-0.645-1.684-1.624-3.457-3.248-4.889c-1.589-1.45-3.954-2.34-6.248-2.222c-2.281,0.11-4.328,0.854-6.066,2.059    c-1.707,1.2-2.942,2.731-3.884,4.237c-1.864,3.049-2.701,6.048-3.233,8.543c-0.182,0.92-0.307,1.755-0.408,2.542    c-0.207-1.024-0.481-2.141-0.843-3.344c-0.977-3.027-2.572-6.702-5.795-9.854c-1.604-1.555-3.646-2.899-5.984-3.723    c-2.347-0.815-4.886-1.137-7.479-0.934c-0.566,0.043-1.126,0.128-1.68,0.229c0.18-1.537,0.053-4.204-0.662-7.657    c-0.07-0.315-0.145-0.639-0.226-0.968c0.343-0.975,0.757-2.056,1.274-3.235c1.076-2.417,2.563-5.238,4.818-7.736    c2.229-2.496,5.366-4.511,9.082-4.768c3.768-0.316,7.265,0.906,9.668,3.096c2.449,2.167,3.97,4.962,5.031,7.36    c2.074,4.887,2.569,8.295,3.077,8.238c0.43-0.013,0.831-3.572-0.792-9.084c-0.856-2.707-2.27-6.004-5.158-8.841    c-0.852-0.83-1.858-1.578-2.962-2.218c0.063-1.445-0.584-4.602-2.319-8.764c-1.21-2.801-2.922-6.099-5.73-9.235    c-1.411-1.55-3.122-3.055-5.23-4.183c-2.091-1.138-4.607-1.818-7.167-1.792c-1.373,0.015-2.742,0.162-4.077,0.436    c0.328-1.498,0.852-3.544,1.895-5.898c1.095-2.418,2.843-5.112,5.47-7.33c2.597-2.222,6.109-3.884,10.014-4.21    c3.886-0.504,7.166,1.181,9.617,3.584c2.455,2.387-0.828-5.155-2.962-6.05c-2.092-0.919-4.681-1.223-6.955-0.966    c-2.134,0.175-4.16,0.725-6.018,1.515c-0.192-1.425-1.091-3.894-3.166-6.841c-1.597-2.187-4.008-4.665-7.52-6.179    c-1.739-0.752-3.729-1.211-5.784-1.281c-2.06-0.076-4.16,0.247-6.182,0.806c-0.207,0.057-0.409,0.133-0.614,0.197    c0.137-1.383,0.25-3.168,0.503-5.264c0.315-2.456,0.837-5.394,2.408-7.967c1.527-2.593,4.307-4.531,7.818-5.467    c3.528-1.023,6.955-0.922,9.761,0.237c2.818,1.124,4.965,3.079,6.56,4.884c3.176,3.703,4.441,6.631,5.19,6.346    c0.678-0.203,0.212-3.641-2.95-8.131c-1.598-2.187-4.008-4.666-7.521-6.179c-1.739-0.754-3.728-1.211-5.784-1.282    c-2.061-0.075-4.16,0.248-6.182,0.807c-1.399,0.389-2.758,0.936-4.022,1.633c0.139-1.091,0.282-2.46,0.465-4.042    c0.284-1.997,0.739-4.363,2.002-6.397c1.23-2.046,3.417-3.563,6.239-4.321c2.845-0.823,5.558-0.74,7.795,0.173    c2.247,0.885,3.981,2.44,5.286,3.883c2.602,2.962,3.712,5.315,4.454,5.037c0.684-0.21,0.374-3.074-2.214-6.822    c-1.31-1.826-3.307-3.904-6.247-5.178c-2.912-1.322-6.668-1.403-10-0.411c-0.549,0.153-1.089,0.343-1.622,0.553    c-0.351-0.888-0.896-1.94-1.701-3.096c-0.138-0.191-0.313-0.39-0.469-0.586c0.245-1.129,0.61-2.304,1.271-3.364    c0.962-1.582,2.65-2.765,4.849-3.35c2.21-0.649,4.318-0.577,6.056,0.129c1.745,0.686,3.095,1.893,4.113,3.015    c2.03,2.302,2.903,4.133,3.496,3.911c0.549-0.169,0.315-2.408-1.704-5.339c-1.021-1.427-2.582-3.054-4.882-4.052    c-2.278-1.033-5.217-1.103-7.822-0.319c-2.664,0.67-5.163,2.474-6.308,4.74c-0.478,0.907-0.778,1.802-0.973,2.662    c-0.842-0.709-1.816-1.366-2.979-1.869c-0.581-0.262-1.204-0.462-1.849-0.612c-0.116-0.995-0.307-2.301-0.514-3.863    c-0.182-1.732-0.301-3.816,0.34-5.805c0.609-1.991,2.15-3.742,4.373-4.965c2.225-1.281,4.543-1.778,6.626-1.467    c2.085,0.285,3.867,1.242,5.261,2.192c2.791,1.967,4.184,3.728,4.708,3.368c0.49-0.291-0.378-2.603-3.31-5.183    c-1.467-1.246-3.554-2.56-6.253-3.014c-2.686-0.5-5.813,0.197-8.385,1.704c-1.317,0.741-2.537,1.688-3.498,2.84    c-0.962,1.151-1.625,2.501-1.963,3.824c-0.673,2.677-0.254,5.038,0.183,6.854c0.365,1.325,0.735,2.423,1.074,3.286    c-1.75-0.193-3.609-0.022-5.341,0.5c-2.918,0.736-5.638,2.695-6.893,5.163c-1.294,2.438-1.449,4.832-1.458,6.699    c0.038,1.384,0.136,2.547,0.26,3.47c-0.069,0.015-0.135,0.036-0.203,0.051c-0.317-0.999-0.913-2.279-1.923-3.73    c-1.127-1.56-2.841-3.335-5.353-4.421c-0.375-0.17-0.769-0.307-1.172-0.428c-0.113-0.84-0.265-1.844-0.436-2.997    c-0.205-1.644-0.394-3.618,0.044-5.557c0.411-1.942,1.645-3.68,3.665-4.859c2.036-1.249,4.172-1.647,6.083-1.232    c1.915,0.393,3.539,1.416,4.808,2.384c2.542,1.999,3.844,3.673,4.375,3.329c0.497-0.289-0.261-2.474-2.875-5.064    c-1.318-1.253-3.181-2.639-5.732-3.255c-1.264-0.301-2.683-0.361-4.085-0.096c-1.411,0.264-2.755,0.828-3.993,1.571    c-1.254,0.745-2.392,1.743-3.219,2.935c-0.636,0.906-1.065,1.905-1.325,2.892c-0.403-0.432-1.029-0.901-1.916-1.327    c-0.991-0.447-2.36-0.833-3.954-0.609c-1.596,0.188-3.234,1.159-4.353,2.427c-1.2,1.229-1.969,3.106-1.798,4.738    c0.142,1.627,0.831,2.799,1.415,3.65c1.238,1.676,2.206,2.382,2.515,2.211c0.355-0.199-0.12-1.428-0.798-3.133    c-0.315-0.85-0.633-1.85-0.593-2.811c0.034-0.953,0.439-1.877,1.289-2.789c1.674-1.95,3.835-1.951,5.508-1.525    c1.069,0.264,1.891,0.565,2.447,0.62c-0.253,2.319,0.159,4.313,0.584,5.893c0.256,0.847,0.509,1.6,0.751,2.25    c-1.877-0.276-3.902-0.126-5.78,0.441c-2.918,0.736-5.638,2.694-6.894,5.163c-1.294,2.439-1.449,4.833-1.458,6.699    c0.056,2.047,0.243,3.599,0.453,4.61c-0.313,0.078-0.626,0.16-0.934,0.255c-1.558,0.473-3.056,1.29-4.266,2.376    c-1.213,1.093-2.076,2.442-2.62,3.767c-0.3,0.755-0.511,1.49-0.668,2.203c-22.34-18.091-77.58-9.289-93.123-2.628    c44.215-13.781,71.778-2.871,83.263,0.574c3.685,1.106,6.953,4.293,9.81,9.896c0.303,2.05,0.706,3.195,1.013,3.204    c0.118,0.002,0.219-0.137,0.312-0.372c5.341,12.497,9.095,34.526,11.26,68.812c2.255,35.713-4.841,58.871-11.139,71.253    c-0.004,0.006-0.007,0.012-0.01,0.018c-0.31,0.552-0.587,1.085-0.845,1.606c-2.989,5.495-5.686,8.513-6.955,9.238    c-4.019,2.297-1.149,7.464,5.168,5.168c5.618-7.002,10.109-14.926,13.652-23.412c2.727-1.562,5.967-2.483,9.371-2.016    c0.102,0.012,0.199,0.038,0.299,0.053c0.033,0.424,0.107,0.66,0.215,0.678c0.131,0.028,0.272-0.175,0.444-0.566    c3.855,0.713,7.117,2.778,9.112,5.561c2.219,2.994,3.24,6.45,3.842,9.35c1.129,5.888,0.835,9.754,1.35,9.798    c0.417,0.077,1.62-3.752,1.06-10.16c-0.339-3.162-1.151-7.085-3.664-10.828c-1.254-1.848-2.98-3.581-5.1-4.864    c-1.649-0.988-3.473-1.702-5.408-2.131c0.53-1.46,1.231-3.263,2.192-5.284c1.317-2.637,3.224-5.688,6.245-7.798    c2.986-2.138,7.124-2.89,11.441-2.05c4.127,0.704,7.245,3.661,9.263,6.868c2.048,3.232,3.244,6.629,4.121,9.491    c0.356,1.207,0.658,2.32,0.923,3.336c-1.971,0.45-3.833,1.239-5.44,2.284c-2.065,1.34-3.727,3.025-5.042,4.767    c-2.628,3.51-3.999,7.159-4.844,10.224c-1.658,6.186-1.033,10.257-0.539,10.197c0.454-0.012,0.718-3.8,2.858-9.447    c1.074-2.786,2.595-6.055,5.017-9.009c2.148-2.651,5.18-4.902,8.842-5.682c0.474,1.825,0.812,2.864,1.226,2.835    c0.385-0.015,0.665-1.137,0.651-3.103c4.04-0.361,7.853,0.839,10.552,3.108c2.89,2.354,4.733,5.45,6.034,8.11    c2.548,5.428,3.218,9.246,3.728,9.162c0.423-0.029,0.642-4.036-1.483-10.107c-1.11-2.981-2.866-6.582-6.226-9.588    c-1.672-1.482-3.772-2.734-6.143-3.454c-2.134-0.636-4.404-0.847-6.713-0.66c-0.141-1.116-0.343-2.347-0.628-3.691    c-0.696-3.095-1.809-6.796-4.065-10.541c-1.14-1.854-2.594-3.719-4.523-5.277c-1.91-1.565-4.339-2.742-6.95-3.213    c-0.885-0.158-1.781-0.25-2.677-0.305c0.463-1.587,1.137-3.699,2.198-6.163c1.197-2.735,2.861-5.934,5.412-8.778    c2.517-2.839,6.102-5.154,10.349-5.447c4.291-0.362,8.297,1.043,11.025,3.552c2.783,2.479,4.487,5.654,5.668,8.37    c1.074,2.579,1.753,4.784,2.227,6.405c-0.11,0.02-0.221,0.026-0.33,0.048c-2.432,0.46-4.657,1.54-6.457,2.897    c-3.619,2.791-5.474,6.426-6.611,9.395c-1.122,3.02-1.549,5.561-1.737,7.312c-0.168,1.758-0.08,2.743,0.145,2.781    c0.549,0.117,1.265-3.732,3.828-9.126c1.317-2.636,3.225-5.688,6.245-7.798c2.986-2.138,7.125-2.89,11.442-2.05    c4.126,0.704,7.245,3.661,9.263,6.869c2.047,3.232,3.244,6.63,4.121,9.493c1.707,5.782,2.214,9.555,3.001,9.503    c0.729-0.029,1.091-3.992-0.229-10.223c-0.696-3.095-1.809-6.796-4.066-10.541c-1.14-1.854-2.594-3.72-4.523-5.277    c-1.91-1.565-4.339-2.742-6.95-3.213c-1.71-0.305-3.453-0.419-5.166-0.309c0.392-1.329,0.913-3.249,1.686-5.573    c0.785-2.268,1.825-4.962,3.534-7.435c0.857-1.223,1.892-2.373,3.139-3.195c1.201-0.808,2.779-1.335,4.279-1.4    c3.026-0.19,5.295,2.16,6.435,4.865c1.177,2.707,1.518,5.562,1.652,7.928C373.621,269.759,373.117,272.833,373.632,272.94z     M325.567,127.953c0.393,0.496,0.733,0.954,1.034,1.368c-0.45,0.242-0.886,0.506-1.303,0.798    C325.385,129.528,325.471,128.797,325.567,127.953z M317.803,169.611c3.527-1.022,6.954-0.921,9.76,0.237    c2.819,1.124,4.965,3.08,6.56,4.884c2.112,2.461,3.369,4.556,4.201,5.616c-1.739,0.88-3.306,1.969-4.602,3.194    c-2.96,2.751-4.714,6.004-5.63,8.822c-0.928,2.835-1.07,5.248-0.997,6.871c0.005,0.085,0.015,0.144,0.021,0.226    c-0.56,0.161-1.111,0.349-1.647,0.57c-2.221,0.875-4.134,2.301-5.595,3.911c-2.923,3.298-4.017,7.071-4.553,10.082    c-0.511,3.057-0.451,5.533-0.307,7.22c0.165,1.69,0.433,2.605,0.663,2.598c0.557,0.011,0.561-3.748,2.022-9.285    c0.774-2.718,2.029-5.928,4.491-8.445c2.425-2.537,6.17-3.979,10.382-3.961c3.995-0.075,7.447,2.139,9.922,4.795    c2.507,2.673,4.245,5.656,5.589,8.196c1.49,2.886,2.513,5.243,3.258,6.721c-0.256-0.108-0.503-0.229-0.768-0.323    c-2.112-0.738-4.393-1.028-6.724-0.844c-2.342,0.177-4.602,0.925-6.503,2.045c-1.907,1.123-3.463,2.572-4.705,4.082    c-2.485,3.046-3.839,6.253-4.698,8.959c-0.04,0.13-0.073,0.253-0.111,0.381c-0.566-1.538-1.294-3.141-2.265-4.756    c-1.018-1.663-2.323-3.339-4.059-4.742c-1.718-1.41-3.91-2.472-6.263-2.895c-2.229-0.399-4.529-0.468-6.712-0.018    c-2.189,0.417-4.193,1.395-5.811,2.619c-3.25,2.518-4.895,5.782-5.896,8.439c-0.994,2.857-1.399,5.166-1.511,6.743    c0.389-13.248-0.576-26.288-2.499-38.181c0.308-0.744,0.641-1.495,1.013-2.251c1.566-3.157,3.779-6.476,6.972-8.593    c1.621-1.064,3.254-1.647,5.159-1.908c0.007-0.001,0.014-0.001,0.022-0.003c0.127,0.44,0.254,0.69,0.383,0.69    c0.134,0,0.264-0.286,0.383-0.776c1.613-0.219,3.184-0.32,4.646-0.225c3.42,0.197,6.202,1.458,8.013,3.172    c1.838,1.698,2.815,3.635,3.466,4.973c0.647,1.356,0.991,2.163,1.374,2.13c0.373-0.026,0.625-0.986,0.371-2.656    c-0.265-1.641-1.04-4.104-3.173-6.462c-2.089-2.382-5.749-4.185-9.79-4.482c-1.453-0.127-2.95-0.102-4.461,0.042    c0.097-1.154,0.204-2.482,0.384-3.978c0.316-2.457,0.838-5.394,2.408-7.968c0.947-1.609,2.379-2.963,4.167-3.984    c0.448,0.585,0.782,0.896,1.044,0.796c0.248-0.074,0.339-0.591,0.203-1.428C316.154,170.126,316.956,169.838,317.803,169.611z     M306.192,132.704c0.237-1.726,0.619-3.78,1.715-5.556c1.074-1.782,2.981-3.123,5.434-3.772c2.461-0.724,4.836-0.646,6.782,0.15    c1.469,0.582,2.682,1.491,3.671,2.439c-0.001,0.142-0.004,0.286-0.004,0.424c0.072,2.085,0.294,3.613,0.533,4.499    c-1.072,0.938-1.952,2.043-2.566,3.197c-1.509,2.862-1.681,5.654-1.681,7.828c0.007,0.461,0.028,0.889,0.052,1.306    c-0.25-0.431-0.532-0.878-0.85-1.338c-1.288-1.8-3.257-3.85-6.156-5.106c-2.133-0.969-4.726-1.259-7.265-0.945    C305.955,134.952,306.06,133.902,306.192,132.704z M311.842,139.856c2.206,0.869,3.909,2.393,5.195,3.811    c1.343,1.525,2.276,2.872,2.974,3.782c-1.52,1.195-2.755,2.674-3.593,4.23c-1.815,3.401-2.056,6.765-2.087,9.398    c0.003,2.522,0.251,4.508,0.473,5.932c-0.175,0.069-0.35,0.139-0.522,0.215c-0.497-1.045-1.152-2.205-2.038-3.463    c-1.597-2.187-4.008-4.667-7.52-6.179c-1.739-0.754-3.728-1.211-5.784-1.283c-1.263-0.046-2.54,0.072-3.806,0.287    c0.056-0.116,0.109-0.27,0.159-0.463c0.156,0.096,0.302,0.15,0.435,0.104c0.437-0.131,0.52-1.198-0.004-2.843    c0.109-0.923,0.226-1.98,0.366-3.174c0.282-1.963,0.731-4.289,1.973-6.283c1.208-2.007,3.351-3.494,6.125-4.239    C306.984,138.88,309.646,138.962,311.842,139.856z M282.074,139.595c0.237-1.726,0.619-3.779,1.715-5.557    c1.074-1.781,2.981-3.122,5.435-3.771c2.461-0.725,4.835-0.646,6.781,0.15c1.957,0.775,3.46,2.13,4.584,3.386    c0.907,1.042,1.592,1.986,2.135,2.738c-1.482,0.466-2.916,1.131-4.16,2.05c-1.397,1.027-2.514,2.363-3.254,3.754    c-1.308,2.486-1.595,4.917-1.642,6.925c-1.064-1.533-2.588-3.198-4.843-4.383c-1.292-0.671-2.823-1.122-4.422-1.208    c-0.94-0.056-1.88,0.027-2.805,0.192C281.741,142.848,281.878,141.374,282.074,139.595z M282.14,166.543    c-2.355-4.889-4.9-8.826-7.536-11.564c0.229-1.072,0.549-2.166,1.055-3.199c0.926-1.934,2.616-3.424,5.029-4.155    c2.458-0.809,4.765-0.672,6.651,0.248c1.894,0.9,3.348,2.395,4.449,3.745c1.004,1.262,1.749,2.373,2.344,3.198    c0.015,0.079,0.03,0.175,0.045,0.251c0.164,0.806,0.324,1.34,0.488,1.601c-0.641,0.123-1.278,0.264-1.906,0.437    c-2.043,0.568-4.015,1.446-5.703,2.688c-1.689,1.236-3.038,2.839-3.941,4.518C282.714,165.059,282.402,165.805,282.14,166.543z     M284.002,170.702c0.37-1.614,0.929-3.276,1.864-4.811c1.527-2.593,4.308-4.53,7.819-5.467c3.528-1.022,6.954-0.922,9.76,0.238    c2.819,1.124,4.965,3.078,6.56,4.884c0.858,1,1.568,1.935,2.174,2.775c-0.342,0.211-0.684,0.422-1.007,0.66    c-1.689,1.237-3.038,2.839-3.941,4.518c-1.815,3.401-2.056,6.765-2.088,9.399c0.002,1.701,0.12,3.137,0.262,4.348    c-2.113,0.257-4.54,1.077-6.496,2.406c-3.331,2.231-5.512,5.283-7.056,8.269C289.864,187.564,287.152,178.264,284.002,170.702z     M309.045,272.37c-2.431,0.462-4.657,1.541-6.457,2.899c-3.618,2.791-5.473,6.425-6.611,9.395    c-0.863,2.322-1.311,4.35-1.559,5.964c-0.04-0.004-0.079-0.016-0.12-0.021c-2.587-0.338-5.212-0.037-7.536,0.749    c-0.17,0.058-0.328,0.134-0.494,0.195c4.139-11.186,6.729-23.215,8.045-35.375c0.254-0.22,0.53-0.42,0.858-0.565    c1.082-0.516,2.709-0.427,4.451,0.328c1.738,0.75,3.531,2.074,5.128,3.765c3.218,3.415,5.008,7.487,6.044,10.493    c0.234,0.686,0.433,1.312,0.613,1.884C310.612,272.13,309.82,272.211,309.045,272.37z M324.295,250.536    c-2.122,1.246-3.857,2.857-5.247,4.538c-2.781,3.391-4.313,6.976-5.293,10.001c-0.357,1.131-0.633,2.191-0.842,3.171    c-0.698-3.261-2.349-7.387-5.659-10.908c-1.889-1.997-4.128-3.559-6.516-4.371c-2.041-0.721-4.377-0.757-6.116,0.121    c0.32-3.518,0.538-7.041,0.658-10.552c0.009,0.815,0.118,1.286,0.254,1.305c0.539,0.113,1.227-3.303,3.527-8.059    c1.181-2.326,2.881-5.006,5.532-6.844c2.623-1.862,6.23-2.515,10.035-1.777c3.6,0.614,6.327,3.191,8.112,6.017    c1.809,2.845,2.877,5.848,3.667,8.379c0.123,0.408,0.229,0.785,0.339,1.169c0,1.375,0.215,2.155,0.443,2.139    c0.04,0.001,0.081-0.056,0.123-0.107c0.476,1.778,0.827,3.168,1.141,4.063C326.971,249.222,325.559,249.793,324.295,250.536z"/>
		<path style="fill:#F4982A;" d="M179.521,352.193c2.186-2.186,8.577-11.577,4.717-9.434    C180.378,344.904,178.234,353.48,179.521,352.193z"/>
		<path style="fill:#F4982A;" d="M162.458,352.752c6.104,6.105-5.16,25.16-14.427,23.307c-2.775-0.554-6.66-2.22-1.666-2.775    C151.36,372.73,161.347,366.625,162.458,352.752z"/>
		<path style="fill:#FFFFFF;" d="M184.238,348.763c0,0,3-9.434,6.432-10.292C194.1,337.614,184.238,352.193,184.238,348.763z"/>
		<path style="fill:#FFFFFF;" d="M200.962,346.618c2.144-2.573,11.305-14.897,7.582-12.38    C204.821,336.756,200.962,346.618,200.962,346.618z"/>
		<polygon style="fill:#F4982A;" points="85.947,487.127 86.234,495.741 81.927,486.266   "/>
		<polygon style="fill:#F4982A;" points="110.064,487.127 110.351,495.741 106.045,486.266   "/>
		<polygon style="fill:#F4982A;" points="140.171,481.642 142.352,489.979 136.06,481.689   "/>
		<polygon style="fill:#F4982A;" points="128.843,486.542 131.023,494.879 124.731,486.588   "/>
		<path style="fill:#FFFFFF;" d="M290.659,175.321c0,0-3.445-9.187,3.445-9.187C300.995,166.135,290.659,175.321,290.659,175.321z"/>
		<path style="fill:#FFFFFF;" d="M322.947,267.63c0,0-1.174-9.741,5.521-8.111C335.163,261.15,322.947,267.63,322.947,267.63z"/>
		<path style="fill:#FFFFFF;" d="M286.197,310.123c0,0-1.175-9.741,5.52-8.111C298.412,303.642,286.197,310.123,286.197,310.123z"/>
		<path style="fill:#FFDF65;" d="M358.13,243.655c-11.772-8.039-14.357-30.434,5.742-35.602    c20.098-5.168,31.008,16.652,22.394,28.711C377.653,248.822,365.85,248.926,358.13,243.655z"/>
		<path style="fill:#FFFFFF;" d="M358.703,231.595c-3.445-2.297-11.484-11.484,4.02-18.949    C372.485,212.072,358.703,231.595,358.703,231.595z"/>
		<path style="fill:#F4982A;" d="M389.712,232.745c0.368,0.003,0.76-1.435,0.817-3.815c0.046-2.364-0.263-5.723-1.644-9.2    c-1.354-3.488-3.665-6.213-5.72-7.585c-2.052-1.414-3.683-1.587-3.789-1.221c-0.126,0.356,1.042,1.115,2.528,2.707    c1.495,1.568,3.211,4.022,4.421,7.121c1.23,3.087,1.822,6.126,2.262,8.344C389.019,231.319,389.32,232.745,389.712,232.745z"/>
	</g>
</g>
</svg>